Format : AVI
Format/Info : Audio Video Interleave
File size : 1.13 GiB
Duration : 1h 27mn
Overall bit rate : 1 842 Kbps
Writing library : VirtualDub build 32842/release

Video
ID : 0
Format : MPEG-4 Visual
Format profile : Advanced Simple@L5
Format settings, BVOP : 1
Format settings, QPel : No
Format settings, GMC : No warppoints
Format settings, Matrix : Default (H.263)
Muxing mode : Packed bitstream
Codec ID : XVID
Codec ID/Hint : XviD
Duration : 1h 27mn
Bit rate : 1 705 Kbps
Width : 624 pixels
Height : 262 pixels
Display aspect ratio : 2.40:1
Frame rate : 23.976 fps
Color space : YUV
Chroma subsampling : 4:2:0
Bit depth : 8 bits
Scan type : Progressive
Compression mode : Lossy
Bits/(Pixel*Frame) : 0.435
Stream size : 1.04 GiB (93%)
Writing library : XviD 64

Audio
ID : 1
Format : MPEG Audio
Format version : Version 1
Format profile : Layer 3
Codec ID : 55
Codec ID/Hint : MP3
Duration : 1h 27mn
Bit rate mode : Constant
Bit rate : 128 Kbps
Channel(s) : 2 channels
Sampling rate : 44.1 KHz
Compression mode : Lossy
Stream size : 80.1 MiB (7%)
Alignment : Split accross interleaves
Interleave, duration : 42 ms (1.00 video frame)
Interleave, preload duration : 500 ms

 
http://www.imdb.com/title/tt1402488/


Ratings: 5.8/10 from 1,103 users Metascore: 50/100
Reviews: 27 user | 46 critic | 25 from Metacritic.com

Mumble's son, Erik, is struggling to realize his talents in the Emperor Penguin world. Meanwhile, Mumble and his family and friends discover a new threat their home -- one that will take everyone working together to save them.
Director:
George Miller
Writers:
George Miller, Gary Eck, and 6 more credits »
Stars:
Elijah Wood, Robin Williams and Pink
 
http://img337.imageshack.us/img337/7442/vlcsnap2011112807h08m06.png
 
http://img220.imageshack.us/img220/1268/vlcsnap2011112807h50m25.png
 
http://img855.imageshack.us/img855/6213/vlcsnap2011112807h08m15.png
 
http://img717.imageshack.us/img717/4687/vlcsnap2011112807h08m47.png

Source Used


FYA ................Thanks



Source is from a 3D cam but its not so bad but check out the sample 1st .........


Filtered the vid .......left the audio untouched

Enjoy





Greetz to IMAGiNE,Flawl3ss,EMBER,ETRG,BHRG,iLLUMiNATi,MiSTERE